<?xml version="1.0" encoding="UTF-8" standalone="no"?>
<!DOCTYPE svg PUBLIC "-//W3C//DTD SVG 1.1//EN"
 "http://www.w3.org/Graphics/SVG/1.1/DTD/svg11.dtd">
<!-- Generated by graphviz version 12.2.1 (0)
 -->
<!-- Title: Automaton Pages: 1 -->
<svg width="477pt" height="156pt"
 viewBox="0.00 0.00 477.05 155.77" xmlns="http://www.w3.org/2000/svg" xmlns:xlink="http://www.w3.org/1999/xlink">
<g id="graph0" class="graph" transform="scale(1 1) rotate(0) translate(4 151.77)">
<title>Automaton</title>
<polygon fill="white" stroke="none" points="-4,4 -4,-151.77 473.05,-151.77 473.05,4 -4,4"/>
<!-- {q2} -->
<g id="node1" class="node">
<title>{q2}</title>
<ellipse fill="none" stroke="black" cx="428.57" cy="-56.26" rx="36.48" ry="36.48"/>
<ellipse fill="none" stroke="black" cx="428.57" cy="-56.26" rx="40.48" ry="40.48"/>
<text text-anchor="middle" x="428.57" y="-51.59" font-family="Times,serif" font-size="14.00">{q2}</text>
</g>
<!-- init -->
<g id="node2" class="node">
<title>init</title>
<ellipse fill="none" stroke="black" cx="32.06" cy="-56.26" rx="28.06" ry="28.06"/>
<ellipse fill="none" stroke="black" cx="32.06" cy="-56.26" rx="32.06" ry="32.06"/>
<text text-anchor="middle" x="32.06" y="-51.59" font-family="Times,serif" font-size="14.00">init</text>
</g>
<!-- {q0} -->
<g id="node3" class="node">
<title>{q0}</title>
<ellipse fill="none" stroke="black" cx="145.1" cy="-56.26" rx="36.48" ry="36.48"/>
<ellipse fill="none" stroke="black" cx="145.1" cy="-56.26" rx="40.48" ry="40.48"/>
<text text-anchor="middle" x="145.1" y="-51.59" font-family="Times,serif" font-size="14.00">{q0}</text>
</g>
<!-- init&#45;&gt;{q0} -->
<g id="edge1" class="edge">
<title>init&#45;&gt;{q0}</title>
<path fill="none" stroke="black" d="M64.58,-56.26C73.43,-56.26 83.28,-56.26 92.96,-56.26"/>
<polygon fill="black" stroke="black" points="92.65,-59.76 102.65,-56.26 92.65,-52.76 92.65,-59.76"/>
<text text-anchor="middle" x="84.37" y="-60.21" font-family="Times,serif" font-size="14.00"> </text>
</g>
<!-- {q0 q1} -->
<g id="node4" class="node">
<title>{q0 q1}</title>
<ellipse fill="none" stroke="black" cx="286.83" cy="-56.26" rx="52.26" ry="52.26"/>
<ellipse fill="none" stroke="black" cx="286.83" cy="-56.26" rx="56.26" ry="56.26"/>
<text text-anchor="middle" x="286.83" y="-51.59" font-family="Times,serif" font-size="14.00">{q0 q1}</text>
</g>
<!-- {q0}&#45;&gt;{q0 q1} -->
<g id="edge2" class="edge">
<title>{q0}&#45;&gt;{q0 q1}</title>
<path fill="none" stroke="black" d="M185.76,-56.26C196.11,-56.26 207.56,-56.26 218.9,-56.26"/>
<polygon fill="black" stroke="black" points="218.64,-59.76 228.64,-56.26 218.64,-52.76 218.64,-59.76"/>
<text text-anchor="middle" x="208.07" y="-60.21" font-family="Times,serif" font-size="14.00">0</text>
</g>
<!-- {q0 q1}&#45;&gt;{q2} -->
<g id="edge4" class="edge">
<title>{q0 q1}&#45;&gt;{q2}</title>
<path fill="none" stroke="black" d="M343.46,-56.26C354.31,-56.26 365.63,-56.26 376.32,-56.26"/>
<polygon fill="black" stroke="black" points="376.11,-59.76 386.11,-56.26 376.11,-52.76 376.11,-59.76"/>
<text text-anchor="middle" x="365.59" y="-60.21" font-family="Times,serif" font-size="14.00">1</text>
</g>
<!-- {q0 q1}&#45;&gt;{q0 q1} -->
<g id="edge3" class="edge">
<title>{q0 q1}&#45;&gt;{q0 q1}</title>
<path fill="none" stroke="black" d="M272.58,-110.99C274.08,-122.35 278.83,-130.52 286.83,-130.52 291.96,-130.52 295.75,-127.17 298.2,-121.77"/>
<polygon fill="black" stroke="black" points="301.5,-123.01 300.69,-112.45 294.73,-121.21 301.5,-123.01"/>
<text text-anchor="middle" x="286.83" y="-134.47" font-family="Times,serif" font-size="14.00">0</text>
</g>
</g>
</svg>
