<?xml version="1.0" encoding="UTF-8" standalone="no"?>
<!DOCTYPE svg PUBLIC "-//W3C//DTD SVG 1.1//EN"
 "http://www.w3.org/Graphics/SVG/1.1/DTD/svg11.dtd">
<!-- Generated by graphviz version 12.2.1 (0)
 -->
<!-- Title: Automaton Pages: 1 -->
<svg width="412pt" height="103pt"
 viewBox="0.00 0.00 411.72 103.16" xmlns="http://www.w3.org/2000/svg" xmlns:xlink="http://www.w3.org/1999/xlink">
<g id="graph0" class="graph" transform="scale(1 1) rotate(0) translate(4 99.16)">
<title>Automaton</title>
<polygon fill="white" stroke="none" points="-4,4 -4,-99.16 407.72,-99.16 407.72,4 -4,4"/>
<!-- q2 -->
<g id="node1" class="node">
<title>q2</title>
<ellipse fill="none" stroke="black" cx="375.87" cy="-32.06" rx="23.85" ry="23.85"/>
<ellipse fill="none" stroke="black" cx="375.87" cy="-32.06" rx="27.85" ry="27.85"/>
<text text-anchor="middle" x="375.87" y="-27.38" font-family="Times,serif" font-size="14.00">q2</text>
</g>
<!-- init -->
<g id="node2" class="node">
<title>init</title>
<ellipse fill="none" stroke="black" cx="32.06" cy="-32.06" rx="28.06" ry="28.06"/>
<ellipse fill="none" stroke="black" cx="32.06" cy="-32.06" rx="32.06" ry="32.06"/>
<text text-anchor="middle" x="32.06" y="-27.38" font-family="Times,serif" font-size="14.00">init</text>
</g>
<!-- q0 -->
<g id="node3" class="node">
<title>q0</title>
<ellipse fill="none" stroke="black" cx="132.47" cy="-32.06" rx="23.85" ry="23.85"/>
<ellipse fill="none" stroke="black" cx="132.47" cy="-32.06" rx="27.85" ry="27.85"/>
<text text-anchor="middle" x="132.47" y="-27.38" font-family="Times,serif" font-size="14.00">q0</text>
</g>
<!-- init&#45;&gt;q0 -->
<g id="edge1" class="edge">
<title>init&#45;&gt;q0</title>
<path fill="none" stroke="black" d="M64.47,-32.06C73.48,-32.06 83.42,-32.06 92.82,-32.06"/>
<polygon fill="black" stroke="black" points="92.82,-35.56 102.82,-32.06 92.82,-28.56 92.82,-35.56"/>
<text text-anchor="middle" x="84.37" y="-36.01" font-family="Times,serif" font-size="14.00"> </text>
</g>
<!-- q0&#45;&gt;q0 -->
<g id="edge2" class="edge">
<title>q0&#45;&gt;q0</title>
<path fill="none" stroke="black" d="M123.49,-58.9C123.09,-69.28 126.08,-77.91 132.47,-77.91 136.26,-77.91 138.86,-74.87 140.26,-70.22"/>
<polygon fill="black" stroke="black" points="143.73,-70.72 141.29,-60.41 136.76,-69.99 143.73,-70.72"/>
<text text-anchor="middle" x="132.47" y="-81.86" font-family="Times,serif" font-size="14.00">0</text>
</g>
<!-- q1 -->
<g id="node4" class="node">
<title>q1</title>
<ellipse fill="none" stroke="black" cx="275.17" cy="-32.06" rx="23.85" ry="23.85"/>
<ellipse fill="none" stroke="black" cx="275.17" cy="-32.06" rx="27.85" ry="27.85"/>
<text text-anchor="middle" x="275.17" y="-27.38" font-family="Times,serif" font-size="14.00">q1</text>
</g>
<!-- q0&#45;&gt;q1 -->
<g id="edge3" class="edge">
<title>q0&#45;&gt;q1</title>
<path fill="none" stroke="black" d="M160.6,-32.06C181.91,-32.06 211.87,-32.06 235.66,-32.06"/>
<polygon fill="black" stroke="black" points="235.61,-35.56 245.61,-32.06 235.61,-28.56 235.61,-35.56"/>
<text text-anchor="middle" x="203.82" y="-36.01" font-family="Times,serif" font-size="14.00">0</text>
</g>
<!-- q0&#45;&gt;q1 -->
<g id="edge4" class="edge">
<title>q0&#45;&gt;q1</title>
<path fill="none" stroke="black" d="M156.97,-18.54C163.66,-15.37 171.09,-12.44 178.32,-10.81 200.43,-5.84 207.2,-5.84 229.32,-10.81 232.93,-11.62 236.6,-12.76 240.2,-14.09"/>
<polygon fill="black" stroke="black" points="238.7,-17.26 249.27,-17.95 241.44,-10.82 238.7,-17.26"/>
<text text-anchor="middle" x="203.82" y="-14.76" font-family="Times,serif" font-size="14.00">epsilon</text>
</g>
<!-- q1&#45;&gt;q2 -->
<g id="edge5" class="edge">
<title>q1&#45;&gt;q2</title>
<path fill="none" stroke="black" d="M303.4,-32.06C313.54,-32.06 325.25,-32.06 336.22,-32.06"/>
<polygon fill="black" stroke="black" points="336.21,-35.56 346.21,-32.06 336.21,-28.56 336.21,-35.56"/>
<text text-anchor="middle" x="325.52" y="-36.01" font-family="Times,serif" font-size="14.00">1</text>
</g>
</g>
</svg>
