<?xml version="1.0" encoding="UTF-8" standalone="no"?>
<!DOCTYPE svg PUBLIC "-//W3C//DTD SVG 1.1//EN"
 "http://www.w3.org/Graphics/SVG/1.1/DTD/svg11.dtd">
<!-- Generated by graphviz version 12.2.1 (0)
 -->
<!-- Title: Automaton Pages: 1 -->
<svg width="370pt" height="103pt"
 viewBox="0.00 0.00 369.72 103.16" xmlns="http://www.w3.org/2000/svg" xmlns:xlink="http://www.w3.org/1999/xlink">
<g id="graph0" class="graph" transform="scale(1 1) rotate(0) translate(4 99.16)">
<title>Automaton</title>
<polygon fill="white" stroke="none" points="-4,4 -4,-99.16 365.72,-99.16 365.72,4 -4,4"/>
<!-- q2 -->
<g id="node1" class="node">
<title>q2</title>
<ellipse fill="none" stroke="black" cx="333.87" cy="-32.06" rx="23.85" ry="23.85"/>
<ellipse fill="none" stroke="black" cx="333.87" cy="-32.06" rx="27.85" ry="27.85"/>
<text text-anchor="middle" x="333.87" y="-27.38" font-family="Times,serif" font-size="14.00">q2</text>
</g>
<!-- init -->
<g id="node2" class="node">
<title>init</title>
<ellipse fill="none" stroke="black" cx="32.06" cy="-32.06" rx="28.06" ry="28.06"/>
<ellipse fill="none" stroke="black" cx="32.06" cy="-32.06" rx="32.06" ry="32.06"/>
<text text-anchor="middle" x="32.06" y="-27.38" font-family="Times,serif" font-size="14.00">init</text>
</g>
<!-- q0 -->
<g id="node3" class="node">
<title>q0</title>
<ellipse fill="none" stroke="black" cx="132.47" cy="-32.06" rx="23.85" ry="23.85"/>
<ellipse fill="none" stroke="black" cx="132.47" cy="-32.06" rx="27.85" ry="27.85"/>
<text text-anchor="middle" x="132.47" y="-27.38" font-family="Times,serif" font-size="14.00">q0</text>
</g>
<!-- init&#45;&gt;q0 -->
<g id="edge1" class="edge">
<title>init&#45;&gt;q0</title>
<path fill="none" stroke="black" d="M64.47,-32.06C73.48,-32.06 83.42,-32.06 92.82,-32.06"/>
<polygon fill="black" stroke="black" points="92.82,-35.56 102.82,-32.06 92.82,-28.56 92.82,-35.56"/>
<text text-anchor="middle" x="84.37" y="-36.01" font-family="Times,serif" font-size="14.00"> </text>
</g>
<!-- q0&#45;&gt;q0 -->
<g id="edge2" class="edge">
<title>q0&#45;&gt;q0</title>
<path fill="none" stroke="black" d="M123.49,-58.9C123.09,-69.28 126.08,-77.91 132.47,-77.91 136.26,-77.91 138.86,-74.87 140.26,-70.22"/>
<polygon fill="black" stroke="black" points="143.73,-70.72 141.29,-60.41 136.76,-69.99 143.73,-70.72"/>
<text text-anchor="middle" x="132.47" y="-81.86" font-family="Times,serif" font-size="14.00">0</text>
</g>
<!-- q1 -->
<g id="node4" class="node">
<title>q1</title>
<ellipse fill="none" stroke="black" cx="233.17" cy="-32.06" rx="23.85" ry="23.85"/>
<ellipse fill="none" stroke="black" cx="233.17" cy="-32.06" rx="27.85" ry="27.85"/>
<text text-anchor="middle" x="233.17" y="-27.38" font-family="Times,serif" font-size="14.00">q1</text>
</g>
<!-- q0&#45;&gt;q1 -->
<g id="edge3" class="edge">
<title>q0&#45;&gt;q1</title>
<path fill="none" stroke="black" d="M160.7,-32.06C170.84,-32.06 182.55,-32.06 193.52,-32.06"/>
<polygon fill="black" stroke="black" points="193.51,-35.56 203.51,-32.06 193.51,-28.56 193.51,-35.56"/>
<text text-anchor="middle" x="182.82" y="-36.01" font-family="Times,serif" font-size="14.00">0</text>
</g>
<!-- q1&#45;&gt;q2 -->
<g id="edge4" class="edge">
<title>q1&#45;&gt;q2</title>
<path fill="none" stroke="black" d="M261.4,-32.06C271.54,-32.06 283.25,-32.06 294.22,-32.06"/>
<polygon fill="black" stroke="black" points="294.21,-35.56 304.21,-32.06 294.21,-28.56 294.21,-35.56"/>
<text text-anchor="middle" x="283.52" y="-36.01" font-family="Times,serif" font-size="14.00">1</text>
</g>
</g>
</svg>
