<?xml version="1.0" encoding="UTF-8" standalone="no"?>
<!DOCTYPE svg PUBLIC "-//W3C//DTD SVG 1.1//EN"
 "http://www.w3.org/Graphics/SVG/1.1/DTD/svg11.dtd">
<!-- Generated by graphviz version 12.2.1 (0)
 -->
<!-- Title: Automaton Pages: 1 -->
<svg width="1436pt" height="214pt"
 viewBox="0.00 0.00 1435.88 213.96" xmlns="http://www.w3.org/2000/svg" xmlns:xlink="http://www.w3.org/1999/xlink">
<g id="graph0" class="graph" transform="scale(1 1) rotate(0) translate(4 209.96)">
<title>Automaton</title>
<polygon fill="white" stroke="none" points="-4,4 -4,-209.96 1431.88,-209.96 1431.88,4 -4,4"/>
<!-- q11 -->
<g id="node1" class="node">
<title>q11</title>
<ellipse fill="none" stroke="black" cx="1393.71" cy="-64.85" rx="30.16" ry="30.16"/>
<ellipse fill="none" stroke="black" cx="1393.71" cy="-64.85" rx="34.16" ry="34.16"/>
<text text-anchor="middle" x="1393.71" y="-60.18" font-family="Times,serif" font-size="14.00">q11</text>
</g>
<!-- init -->
<g id="node2" class="node">
<title>init</title>
<ellipse fill="none" stroke="black" cx="32.06" cy="-64.85" rx="28.06" ry="28.06"/>
<ellipse fill="none" stroke="black" cx="32.06" cy="-64.85" rx="32.06" ry="32.06"/>
<text text-anchor="middle" x="32.06" y="-60.18" font-family="Times,serif" font-size="14.00">init</text>
</g>
<!-- q0 -->
<g id="node3" class="node">
<title>q0</title>
<ellipse fill="none" stroke="black" cx="132.47" cy="-64.85" rx="23.85" ry="23.85"/>
<ellipse fill="none" stroke="black" cx="132.47" cy="-64.85" rx="27.85" ry="27.85"/>
<text text-anchor="middle" x="132.47" y="-60.18" font-family="Times,serif" font-size="14.00">q0</text>
</g>
<!-- init&#45;&gt;q0 -->
<g id="edge1" class="edge">
<title>init&#45;&gt;q0</title>
<path fill="none" stroke="black" d="M64.47,-64.85C73.48,-64.85 83.42,-64.85 92.82,-64.85"/>
<polygon fill="black" stroke="black" points="92.82,-68.35 102.82,-64.85 92.82,-61.35 92.82,-68.35"/>
<text text-anchor="middle" x="84.37" y="-68.8" font-family="Times,serif" font-size="14.00"> </text>
</g>
<!-- q2 -->
<g id="node4" class="node">
<title>q2</title>
<ellipse fill="none" stroke="black" cx="275.17" cy="-101.85" rx="23.85" ry="23.85"/>
<ellipse fill="none" stroke="black" cx="275.17" cy="-101.85" rx="27.85" ry="27.85"/>
<text text-anchor="middle" x="275.17" y="-97.18" font-family="Times,serif" font-size="14.00">q2</text>
</g>
<!-- q0&#45;&gt;q2 -->
<g id="edge4" class="edge">
<title>q0&#45;&gt;q2</title>
<path fill="none" stroke="black" d="M159.93,-71.81C181.65,-77.52 212.65,-85.67 236.88,-92.05"/>
<polygon fill="black" stroke="black" points="235.8,-95.38 246.36,-94.54 237.58,-88.61 235.8,-95.38"/>
<text text-anchor="middle" x="203.82" y="-93.83" font-family="Times,serif" font-size="14.00">epsilon</text>
</g>
<!-- q4 -->
<g id="node6" class="node">
<title>q4</title>
<ellipse fill="none" stroke="black" cx="275.17" cy="-27.85" rx="23.85" ry="23.85"/>
<ellipse fill="none" stroke="black" cx="275.17" cy="-27.85" rx="27.85" ry="27.85"/>
<text text-anchor="middle" x="275.17" y="-23.18" font-family="Times,serif" font-size="14.00">q4</text>
</g>
<!-- q0&#45;&gt;q4 -->
<g id="edge5" class="edge">
<title>q0&#45;&gt;q4</title>
<path fill="none" stroke="black" d="M159.93,-57.89C181.65,-52.18 212.65,-44.03 236.88,-37.66"/>
<polygon fill="black" stroke="black" points="237.58,-41.09 246.36,-35.16 235.8,-34.32 237.58,-41.09"/>
<text text-anchor="middle" x="203.82" y="-56.83" font-family="Times,serif" font-size="14.00">epsilon</text>
</g>
<!-- q3 -->
<g id="node5" class="node">
<title>q3</title>
<ellipse fill="none" stroke="black" cx="375.87" cy="-101.85" rx="23.85" ry="23.85"/>
<ellipse fill="none" stroke="black" cx="375.87" cy="-101.85" rx="27.85" ry="27.85"/>
<text text-anchor="middle" x="375.87" y="-97.18" font-family="Times,serif" font-size="14.00">q3</text>
</g>
<!-- q2&#45;&gt;q3 -->
<g id="edge2" class="edge">
<title>q2&#45;&gt;q3</title>
<path fill="none" stroke="black" d="M303.4,-101.85C313.54,-101.85 325.25,-101.85 336.22,-101.85"/>
<polygon fill="black" stroke="black" points="336.21,-105.35 346.21,-101.85 336.21,-98.35 336.21,-105.35"/>
<text text-anchor="middle" x="325.52" y="-105.8" font-family="Times,serif" font-size="14.00">a</text>
</g>
<!-- q1 -->
<g id="node8" class="node">
<title>q1</title>
<ellipse fill="none" stroke="black" cx="518.57" cy="-64.85" rx="23.85" ry="23.85"/>
<ellipse fill="none" stroke="black" cx="518.57" cy="-64.85" rx="27.85" ry="27.85"/>
<text text-anchor="middle" x="518.57" y="-60.18" font-family="Times,serif" font-size="14.00">q1</text>
</g>
<!-- q3&#45;&gt;q1 -->
<g id="edge6" class="edge">
<title>q3&#45;&gt;q1</title>
<path fill="none" stroke="black" d="M403.33,-94.89C425.05,-89.18 456.06,-81.03 480.29,-74.66"/>
<polygon fill="black" stroke="black" points="480.98,-78.09 489.76,-72.16 479.2,-71.32 480.98,-78.09"/>
<text text-anchor="middle" x="447.22" y="-93.83" font-family="Times,serif" font-size="14.00">epsilon</text>
</g>
<!-- q5 -->
<g id="node7" class="node">
<title>q5</title>
<ellipse fill="none" stroke="black" cx="375.87" cy="-27.85" rx="23.85" ry="23.85"/>
<ellipse fill="none" stroke="black" cx="375.87" cy="-27.85" rx="27.85" ry="27.85"/>
<text text-anchor="middle" x="375.87" y="-23.18" font-family="Times,serif" font-size="14.00">q5</text>
</g>
<!-- q4&#45;&gt;q5 -->
<g id="edge3" class="edge">
<title>q4&#45;&gt;q5</title>
<path fill="none" stroke="black" d="M303.4,-27.85C313.54,-27.85 325.25,-27.85 336.22,-27.85"/>
<polygon fill="black" stroke="black" points="336.21,-31.35 346.21,-27.85 336.21,-24.35 336.21,-31.35"/>
<text text-anchor="middle" x="325.52" y="-31.8" font-family="Times,serif" font-size="14.00">b</text>
</g>
<!-- q5&#45;&gt;q1 -->
<g id="edge7" class="edge">
<title>q5&#45;&gt;q1</title>
<path fill="none" stroke="black" d="M403.33,-34.81C425.05,-40.52 456.06,-48.67 480.29,-55.05"/>
<polygon fill="black" stroke="black" points="479.2,-58.38 489.76,-57.54 480.98,-51.61 479.2,-58.38"/>
<text text-anchor="middle" x="447.22" y="-56.83" font-family="Times,serif" font-size="14.00">epsilon</text>
</g>
<!-- q6 -->
<g id="node11" class="node">
<title>q6</title>
<ellipse fill="none" stroke="black" cx="661.27" cy="-64.85" rx="23.85" ry="23.85"/>
<ellipse fill="none" stroke="black" cx="661.27" cy="-64.85" rx="27.85" ry="27.85"/>
<text text-anchor="middle" x="661.27" y="-60.18" font-family="Times,serif" font-size="14.00">q6</text>
</g>
<!-- q1&#45;&gt;q6 -->
<g id="edge12" class="edge">
<title>q1&#45;&gt;q6</title>
<path fill="none" stroke="black" d="M546.7,-64.85C568.01,-64.85 597.97,-64.85 621.76,-64.85"/>
<polygon fill="black" stroke="black" points="621.71,-68.35 631.71,-64.85 621.71,-61.35 621.71,-68.35"/>
<text text-anchor="middle" x="589.92" y="-68.8" font-family="Times,serif" font-size="14.00">epsilon</text>
</g>
<!-- q8 -->
<g id="node9" class="node">
<title>q8</title>
<ellipse fill="none" stroke="black" cx="803.97" cy="-104.85" rx="23.85" ry="23.85"/>
<ellipse fill="none" stroke="black" cx="803.97" cy="-104.85" rx="27.85" ry="27.85"/>
<text text-anchor="middle" x="803.97" y="-100.18" font-family="Times,serif" font-size="14.00">q8</text>
</g>
<!-- q9 -->
<g id="node10" class="node">
<title>q9</title>
<ellipse fill="none" stroke="black" cx="946.67" cy="-104.85" rx="23.85" ry="23.85"/>
<ellipse fill="none" stroke="black" cx="946.67" cy="-104.85" rx="27.85" ry="27.85"/>
<text text-anchor="middle" x="946.67" y="-100.18" font-family="Times,serif" font-size="14.00">q9</text>
</g>
<!-- q8&#45;&gt;q9 -->
<g id="edge8" class="edge">
<title>q8&#45;&gt;q9</title>
<path fill="none" stroke="black" d="M832.1,-104.85C853.41,-104.85 883.37,-104.85 907.17,-104.85"/>
<polygon fill="black" stroke="black" points="907.11,-108.35 917.11,-104.85 907.11,-101.35 907.11,-108.35"/>
<text text-anchor="middle" x="875.32" y="-108.8" font-family="Times,serif" font-size="14.00">c</text>
</g>
<!-- q7 -->
<g id="node12" class="node">
<title>q7</title>
<ellipse fill="none" stroke="black" cx="1089.37" cy="-64.85" rx="23.85" ry="23.85"/>
<ellipse fill="none" stroke="black" cx="1089.37" cy="-64.85" rx="27.85" ry="27.85"/>
<text text-anchor="middle" x="1089.37" y="-60.18" font-family="Times,serif" font-size="14.00">q7</text>
</g>
<!-- q9&#45;&gt;q7 -->
<g id="edge11" class="edge">
<title>q9&#45;&gt;q7</title>
<path fill="none" stroke="black" d="M973.81,-97.42C995.62,-91.22 1026.98,-82.3 1051.38,-75.37"/>
<polygon fill="black" stroke="black" points="1052.26,-78.76 1060.92,-72.65 1050.35,-72.02 1052.26,-78.76"/>
<text text-anchor="middle" x="1018.02" y="-95.86" font-family="Times,serif" font-size="14.00">epsilon</text>
</g>
<!-- q6&#45;&gt;q8 -->
<g id="edge9" class="edge">
<title>q6&#45;&gt;q8</title>
<path fill="none" stroke="black" d="M688.41,-72.28C710.22,-78.48 741.58,-87.4 765.98,-94.33"/>
<polygon fill="black" stroke="black" points="764.95,-97.68 775.52,-97.05 766.86,-90.95 764.95,-97.68"/>
<text text-anchor="middle" x="732.62" y="-95.86" font-family="Times,serif" font-size="14.00">epsilon</text>
</g>
<!-- q6&#45;&gt;q7 -->
<g id="edge10" class="edge">
<title>q6&#45;&gt;q7</title>
<path fill="none" stroke="black" d="M689.57,-64.85C763,-64.85 964.89,-64.85 1049.87,-64.85"/>
<polygon fill="black" stroke="black" points="1049.78,-68.35 1059.78,-64.85 1049.78,-61.35 1049.78,-68.35"/>
<text text-anchor="middle" x="875.32" y="-68.8" font-family="Times,serif" font-size="14.00">epsilon</text>
</g>
<!-- q10 -->
<g id="node15" class="node">
<title>q10</title>
<ellipse fill="none" stroke="black" cx="1238.39" cy="-64.85" rx="30.16" ry="30.16"/>
<ellipse fill="none" stroke="black" cx="1238.39" cy="-64.85" rx="34.16" ry="34.16"/>
<text text-anchor="middle" x="1238.39" y="-60.18" font-family="Times,serif" font-size="14.00">q10</text>
</g>
<!-- q7&#45;&gt;q10 -->
<g id="edge18" class="edge">
<title>q7&#45;&gt;q10</title>
<path fill="none" stroke="black" d="M1117.68,-64.85C1138.59,-64.85 1167.88,-64.85 1192.26,-64.85"/>
<polygon fill="black" stroke="black" points="1192.26,-68.35 1202.26,-64.85 1192.26,-61.35 1192.26,-68.35"/>
<text text-anchor="middle" x="1160.72" y="-68.8" font-family="Times,serif" font-size="14.00">epsilon</text>
</g>
<!-- q12 -->
<g id="node13" class="node">
<title>q12</title>
<ellipse fill="none" stroke="black" cx="1393.71" cy="-167.85" rx="30.16" ry="30.16"/>
<ellipse fill="none" stroke="black" cx="1393.71" cy="-167.85" rx="34.16" ry="34.16"/>
<text text-anchor="middle" x="1393.71" y="-163.18" font-family="Times,serif" font-size="14.00">q12</text>
</g>
<!-- q13 -->
<g id="node14" class="node">
<title>q13</title>
<ellipse fill="none" stroke="black" cx="1238.39" cy="-167.85" rx="30.16" ry="30.16"/>
<ellipse fill="none" stroke="black" cx="1238.39" cy="-167.85" rx="34.16" ry="34.16"/>
<text text-anchor="middle" x="1238.39" y="-163.18" font-family="Times,serif" font-size="14.00">q13</text>
</g>
<!-- q12&#45;&gt;q13 -->
<g id="edge13" class="edge">
<title>q12&#45;&gt;q13</title>
<path fill="none" stroke="black" d="M1361.77,-180.61C1355.2,-182.79 1348.23,-184.71 1341.55,-185.85 1319.21,-189.67 1312.89,-189.67 1290.55,-185.85 1287.52,-185.33 1284.44,-184.66 1281.35,-183.87"/>
<polygon fill="black" stroke="black" points="1282.36,-180.52 1271.78,-181.04 1280.38,-187.23 1282.36,-180.52"/>
<text text-anchor="middle" x="1316.05" y="-192.66" font-family="Times,serif" font-size="14.00">d</text>
</g>
<!-- q13&#45;&gt;q11 -->
<g id="edge17" class="edge">
<title>q13&#45;&gt;q11</title>
<path fill="none" stroke="black" d="M1268.65,-151.45C1289.43,-139.48 1317.75,-122.5 1341.55,-105.85 1346.99,-102.05 1352.6,-97.85 1358.03,-93.63"/>
<polygon fill="black" stroke="black" points="1360.07,-96.48 1365.74,-87.53 1355.73,-90.99 1360.07,-96.48"/>
<text text-anchor="middle" x="1316.05" y="-141.59" font-family="Times,serif" font-size="14.00">epsilon</text>
</g>
<!-- q13&#45;&gt;q12 -->
<g id="edge16" class="edge">
<title>q13&#45;&gt;q12</title>
<path fill="none" stroke="black" d="M1272.95,-165.41C1278.81,-165.07 1284.86,-164.78 1290.55,-164.6 1313.21,-163.88 1318.9,-163.88 1341.55,-164.6 1343.6,-164.67 1345.69,-164.74 1347.8,-164.84"/>
<polygon fill="black" stroke="black" points="1347.48,-168.32 1357.64,-165.34 1347.83,-161.33 1347.48,-168.32"/>
<text text-anchor="middle" x="1316.05" y="-168.55" font-family="Times,serif" font-size="14.00">epsilon</text>
</g>
<!-- q10&#45;&gt;q11 -->
<g id="edge15" class="edge">
<title>q10&#45;&gt;q11</title>
<path fill="none" stroke="black" d="M1270.96,-53.16C1277.36,-51.27 1284.1,-49.6 1290.55,-48.6 1312.95,-45.13 1319.15,-45.13 1341.55,-48.6 1344.37,-49.04 1347.25,-49.6 1350.13,-50.26"/>
<polygon fill="black" stroke="black" points="1349.12,-53.61 1359.68,-52.78 1350.9,-46.84 1349.12,-53.61"/>
<text text-anchor="middle" x="1316.05" y="-52.55" font-family="Times,serif" font-size="14.00">epsilon</text>
</g>
<!-- q10&#45;&gt;q12 -->
<g id="edge14" class="edge">
<title>q10&#45;&gt;q12</title>
<path fill="none" stroke="black" d="M1272.81,-66.27C1294.13,-68.63 1321.44,-74.46 1341.55,-88.6 1349.39,-94.11 1360.75,-111.15 1370.78,-128.02"/>
<polygon fill="black" stroke="black" points="1367.68,-129.65 1375.73,-136.54 1373.73,-126.13 1367.68,-129.65"/>
<text text-anchor="middle" x="1316.05" y="-92.55" font-family="Times,serif" font-size="14.00">epsilon</text>
</g>
</g>
</svg>
