<?xml version="1.0" encoding="UTF-8" standalone="no"?>
<!DOCTYPE svg PUBLIC "-//W3C//DTD SVG 1.1//EN"
 "http://www.w3.org/Graphics/SVG/1.1/DTD/svg11.dtd">
<!-- Generated by graphviz version 12.2.1 (0)
 -->
<!-- Title: Automaton Pages: 1 -->
<svg width="797pt" height="138pt"
 viewBox="0.00 0.00 797.07 137.70" xmlns="http://www.w3.org/2000/svg" xmlns:xlink="http://www.w3.org/1999/xlink">
<g id="graph0" class="graph" transform="scale(1 1) rotate(0) translate(4 133.7)">
<title>Automaton</title>
<polygon fill="white" stroke="none" points="-4,4 -4,-133.7 793.07,-133.7 793.07,4 -4,4"/>
<!-- q1 -->
<g id="node1" class="node">
<title>q1</title>
<ellipse fill="none" stroke="black" cx="761.22" cy="-64.85" rx="23.85" ry="23.85"/>
<ellipse fill="none" stroke="black" cx="761.22" cy="-64.85" rx="27.85" ry="27.85"/>
<text text-anchor="middle" x="761.22" y="-60.18" font-family="Times,serif" font-size="14.00">q1</text>
</g>
<!-- init -->
<g id="node2" class="node">
<title>init</title>
<ellipse fill="none" stroke="black" cx="32.06" cy="-64.85" rx="28.06" ry="28.06"/>
<ellipse fill="none" stroke="black" cx="32.06" cy="-64.85" rx="32.06" ry="32.06"/>
<text text-anchor="middle" x="32.06" y="-60.18" font-family="Times,serif" font-size="14.00">init</text>
</g>
<!-- q0 -->
<g id="node3" class="node">
<title>q0</title>
<ellipse fill="none" stroke="black" cx="132.47" cy="-64.85" rx="23.85" ry="23.85"/>
<ellipse fill="none" stroke="black" cx="132.47" cy="-64.85" rx="27.85" ry="27.85"/>
<text text-anchor="middle" x="132.47" y="-60.18" font-family="Times,serif" font-size="14.00">q0</text>
</g>
<!-- init&#45;&gt;q0 -->
<g id="edge1" class="edge">
<title>init&#45;&gt;q0</title>
<path fill="none" stroke="black" d="M64.47,-64.85C73.48,-64.85 83.42,-64.85 92.82,-64.85"/>
<polygon fill="black" stroke="black" points="92.82,-68.35 102.82,-64.85 92.82,-61.35 92.82,-68.35"/>
<text text-anchor="middle" x="84.37" y="-68.8" font-family="Times,serif" font-size="14.00"> </text>
</g>
<!-- q2 -->
<g id="node4" class="node">
<title>q2</title>
<ellipse fill="none" stroke="black" cx="275.17" cy="-101.85" rx="23.85" ry="23.85"/>
<ellipse fill="none" stroke="black" cx="275.17" cy="-101.85" rx="27.85" ry="27.85"/>
<text text-anchor="middle" x="275.17" y="-97.18" font-family="Times,serif" font-size="14.00">q2</text>
</g>
<!-- q0&#45;&gt;q2 -->
<g id="edge8" class="edge">
<title>q0&#45;&gt;q2</title>
<path fill="none" stroke="black" d="M159.93,-71.81C181.65,-77.52 212.65,-85.67 236.88,-92.05"/>
<polygon fill="black" stroke="black" points="235.8,-95.38 246.36,-94.54 237.58,-88.61 235.8,-95.38"/>
<text text-anchor="middle" x="203.82" y="-93.83" font-family="Times,serif" font-size="14.00">epsilon</text>
</g>
<!-- q6 -->
<g id="node8" class="node">
<title>q6</title>
<ellipse fill="none" stroke="black" cx="275.17" cy="-27.85" rx="23.85" ry="23.85"/>
<ellipse fill="none" stroke="black" cx="275.17" cy="-27.85" rx="27.85" ry="27.85"/>
<text text-anchor="middle" x="275.17" y="-23.18" font-family="Times,serif" font-size="14.00">q6</text>
</g>
<!-- q0&#45;&gt;q6 -->
<g id="edge9" class="edge">
<title>q0&#45;&gt;q6</title>
<path fill="none" stroke="black" d="M159.93,-57.89C181.65,-52.18 212.65,-44.03 236.88,-37.66"/>
<polygon fill="black" stroke="black" points="237.58,-41.09 246.36,-35.16 235.8,-34.32 237.58,-41.09"/>
<text text-anchor="middle" x="203.82" y="-56.83" font-family="Times,serif" font-size="14.00">epsilon</text>
</g>
<!-- q3 -->
<g id="node5" class="node">
<title>q3</title>
<ellipse fill="none" stroke="black" cx="375.12" cy="-101.85" rx="23.85" ry="23.85"/>
<ellipse fill="none" stroke="black" cx="375.12" cy="-101.85" rx="27.85" ry="27.85"/>
<text text-anchor="middle" x="375.12" y="-97.18" font-family="Times,serif" font-size="14.00">q3</text>
</g>
<!-- q2&#45;&gt;q3 -->
<g id="edge2" class="edge">
<title>q2&#45;&gt;q3</title>
<path fill="none" stroke="black" d="M303.45,-101.85C313.43,-101.85 324.91,-101.85 335.68,-101.85"/>
<polygon fill="black" stroke="black" points="335.47,-105.35 345.47,-101.85 335.47,-98.35 335.47,-105.35"/>
<text text-anchor="middle" x="325.14" y="-105.8" font-family="Times,serif" font-size="14.00">a</text>
</g>
<!-- q4 -->
<g id="node6" class="node">
<title>q4</title>
<ellipse fill="none" stroke="black" cx="517.82" cy="-101.85" rx="23.85" ry="23.85"/>
<ellipse fill="none" stroke="black" cx="517.82" cy="-101.85" rx="27.85" ry="27.85"/>
<text text-anchor="middle" x="517.82" y="-97.18" font-family="Times,serif" font-size="14.00">q4</text>
</g>
<!-- q3&#45;&gt;q4 -->
<g id="edge4" class="edge">
<title>q3&#45;&gt;q4</title>
<path fill="none" stroke="black" d="M403.25,-101.85C424.56,-101.85 454.52,-101.85 478.31,-101.85"/>
<polygon fill="black" stroke="black" points="478.26,-105.35 488.26,-101.85 478.26,-98.35 478.26,-105.35"/>
<text text-anchor="middle" x="446.47" y="-105.8" font-family="Times,serif" font-size="14.00">epsilon</text>
</g>
<!-- q5 -->
<g id="node7" class="node">
<title>q5</title>
<ellipse fill="none" stroke="black" cx="618.52" cy="-101.85" rx="23.85" ry="23.85"/>
<ellipse fill="none" stroke="black" cx="618.52" cy="-101.85" rx="27.85" ry="27.85"/>
<text text-anchor="middle" x="618.52" y="-97.18" font-family="Times,serif" font-size="14.00">q5</text>
</g>
<!-- q4&#45;&gt;q5 -->
<g id="edge3" class="edge">
<title>q4&#45;&gt;q5</title>
<path fill="none" stroke="black" d="M546.05,-101.85C556.19,-101.85 567.9,-101.85 578.87,-101.85"/>
<polygon fill="black" stroke="black" points="578.86,-105.35 588.86,-101.85 578.86,-98.35 578.86,-105.35"/>
<text text-anchor="middle" x="568.17" y="-105.8" font-family="Times,serif" font-size="14.00">b</text>
</g>
<!-- q5&#45;&gt;q1 -->
<g id="edge10" class="edge">
<title>q5&#45;&gt;q1</title>
<path fill="none" stroke="black" d="M645.99,-94.89C667.7,-89.18 698.71,-81.03 722.94,-74.66"/>
<polygon fill="black" stroke="black" points="723.63,-78.09 732.41,-72.16 721.85,-71.32 723.63,-78.09"/>
<text text-anchor="middle" x="689.87" y="-93.83" font-family="Times,serif" font-size="14.00">epsilon</text>
</g>
<!-- q7 -->
<g id="node9" class="node">
<title>q7</title>
<ellipse fill="none" stroke="black" cx="375.12" cy="-27.85" rx="23.85" ry="23.85"/>
<ellipse fill="none" stroke="black" cx="375.12" cy="-27.85" rx="27.85" ry="27.85"/>
<text text-anchor="middle" x="375.12" y="-23.18" font-family="Times,serif" font-size="14.00">q7</text>
</g>
<!-- q6&#45;&gt;q7 -->
<g id="edge5" class="edge">
<title>q6&#45;&gt;q7</title>
<path fill="none" stroke="black" d="M303.45,-27.85C313.43,-27.85 324.91,-27.85 335.68,-27.85"/>
<polygon fill="black" stroke="black" points="335.47,-31.35 345.47,-27.85 335.47,-24.35 335.47,-31.35"/>
<text text-anchor="middle" x="325.14" y="-31.8" font-family="Times,serif" font-size="14.00">c</text>
</g>
<!-- q8 -->
<g id="node10" class="node">
<title>q8</title>
<ellipse fill="none" stroke="black" cx="517.82" cy="-27.85" rx="23.85" ry="23.85"/>
<ellipse fill="none" stroke="black" cx="517.82" cy="-27.85" rx="27.85" ry="27.85"/>
<text text-anchor="middle" x="517.82" y="-23.18" font-family="Times,serif" font-size="14.00">q8</text>
</g>
<!-- q7&#45;&gt;q8 -->
<g id="edge7" class="edge">
<title>q7&#45;&gt;q8</title>
<path fill="none" stroke="black" d="M403.25,-27.85C424.56,-27.85 454.52,-27.85 478.31,-27.85"/>
<polygon fill="black" stroke="black" points="478.26,-31.35 488.26,-27.85 478.26,-24.35 478.26,-31.35"/>
<text text-anchor="middle" x="446.47" y="-31.8" font-family="Times,serif" font-size="14.00">epsilon</text>
</g>
<!-- q9 -->
<g id="node11" class="node">
<title>q9</title>
<ellipse fill="none" stroke="black" cx="618.52" cy="-27.85" rx="23.85" ry="23.85"/>
<ellipse fill="none" stroke="black" cx="618.52" cy="-27.85" rx="27.85" ry="27.85"/>
<text text-anchor="middle" x="618.52" y="-23.18" font-family="Times,serif" font-size="14.00">q9</text>
</g>
<!-- q8&#45;&gt;q9 -->
<g id="edge6" class="edge">
<title>q8&#45;&gt;q9</title>
<path fill="none" stroke="black" d="M546.05,-27.85C556.19,-27.85 567.9,-27.85 578.87,-27.85"/>
<polygon fill="black" stroke="black" points="578.86,-31.35 588.86,-27.85 578.86,-24.35 578.86,-31.35"/>
<text text-anchor="middle" x="568.17" y="-31.8" font-family="Times,serif" font-size="14.00">d</text>
</g>
<!-- q9&#45;&gt;q1 -->
<g id="edge11" class="edge">
<title>q9&#45;&gt;q1</title>
<path fill="none" stroke="black" d="M645.99,-34.81C667.7,-40.52 698.71,-48.67 722.94,-55.05"/>
<polygon fill="black" stroke="black" points="721.85,-58.38 732.41,-57.54 723.63,-51.61 721.85,-58.38"/>
<text text-anchor="middle" x="689.87" y="-56.83" font-family="Times,serif" font-size="14.00">epsilon</text>
</g>
</g>
</svg>
