<?xml version="1.0" encoding="UTF-8" standalone="no"?>
<!DOCTYPE svg PUBLIC "-//W3C//DTD SVG 1.1//EN"
 "http://www.w3.org/Graphics/SVG/1.1/DTD/svg11.dtd">
<!-- Generated by graphviz version 12.2.1 (0)
 -->
<!-- Title: Automaton Pages: 1 -->
<svg width="797pt" height="343pt"
 viewBox="0.00 0.00 797.07 342.91" xmlns="http://www.w3.org/2000/svg" xmlns:xlink="http://www.w3.org/1999/xlink">
<g id="graph0" class="graph" transform="scale(1 1) rotate(0) translate(4 338.91)">
<title>Automaton</title>
<polygon fill="white" stroke="none" points="-4,4 -4,-338.91 793.07,-338.91 793.07,4 -4,4"/>
<!-- q3 -->
<g id="node1" class="node">
<title>q3</title>
<ellipse fill="none" stroke="black" cx="517.82" cy="-27.85" rx="23.85" ry="23.85"/>
<ellipse fill="none" stroke="black" cx="517.82" cy="-27.85" rx="27.85" ry="27.85"/>
<text text-anchor="middle" x="517.82" y="-23.18" font-family="Times,serif" font-size="14.00">q3</text>
</g>
<!-- init -->
<g id="node2" class="node">
<title>init</title>
<ellipse fill="none" stroke="black" cx="32.06" cy="-302.85" rx="28.06" ry="28.06"/>
<ellipse fill="none" stroke="black" cx="32.06" cy="-302.85" rx="32.06" ry="32.06"/>
<text text-anchor="middle" x="32.06" y="-298.18" font-family="Times,serif" font-size="14.00">init</text>
</g>
<!-- q0 -->
<g id="node3" class="node">
<title>q0</title>
<ellipse fill="none" stroke="black" cx="132.47" cy="-302.85" rx="23.85" ry="23.85"/>
<ellipse fill="none" stroke="black" cx="132.47" cy="-302.85" rx="27.85" ry="27.85"/>
<text text-anchor="middle" x="132.47" y="-298.18" font-family="Times,serif" font-size="14.00">q0</text>
</g>
<!-- init&#45;&gt;q0 -->
<g id="edge1" class="edge">
<title>init&#45;&gt;q0</title>
<path fill="none" stroke="black" d="M64.47,-302.85C73.48,-302.85 83.42,-302.85 92.82,-302.85"/>
<polygon fill="black" stroke="black" points="92.82,-306.35 102.82,-302.85 92.82,-299.35 92.82,-306.35"/>
<text text-anchor="middle" x="84.37" y="-306.8" font-family="Times,serif" font-size="14.00"> </text>
</g>
<!-- q1 -->
<g id="node4" class="node">
<title>q1</title>
<ellipse fill="none" stroke="black" cx="232.42" cy="-302.85" rx="23.85" ry="23.85"/>
<ellipse fill="none" stroke="black" cx="232.42" cy="-302.85" rx="27.85" ry="27.85"/>
<text text-anchor="middle" x="232.42" y="-298.18" font-family="Times,serif" font-size="14.00">q1</text>
</g>
<!-- q0&#45;&gt;q1 -->
<g id="edge2" class="edge">
<title>q0&#45;&gt;q1</title>
<path fill="none" stroke="black" d="M160.75,-302.85C170.73,-302.85 182.21,-302.85 192.98,-302.85"/>
<polygon fill="black" stroke="black" points="192.77,-306.35 202.77,-302.85 192.77,-299.35 192.77,-306.35"/>
<text text-anchor="middle" x="182.44" y="-306.8" font-family="Times,serif" font-size="14.00">a</text>
</g>
<!-- q2 -->
<g id="node11" class="node">
<title>q2</title>
<ellipse fill="none" stroke="black" cx="375.12" cy="-302.85" rx="23.85" ry="23.85"/>
<ellipse fill="none" stroke="black" cx="375.12" cy="-302.85" rx="27.85" ry="27.85"/>
<text text-anchor="middle" x="375.12" y="-298.18" font-family="Times,serif" font-size="14.00">q2</text>
</g>
<!-- q1&#45;&gt;q2 -->
<g id="edge12" class="edge">
<title>q1&#45;&gt;q2</title>
<path fill="none" stroke="black" d="M260.55,-302.85C281.86,-302.85 311.82,-302.85 335.61,-302.85"/>
<polygon fill="black" stroke="black" points="335.56,-306.35 345.56,-302.85 335.56,-299.35 335.56,-306.35"/>
<text text-anchor="middle" x="303.77" y="-306.8" font-family="Times,serif" font-size="14.00">epsilon</text>
</g>
<!-- q6 -->
<g id="node5" class="node">
<title>q6</title>
<ellipse fill="none" stroke="black" cx="660.52" cy="-213.85" rx="23.85" ry="23.85"/>
<ellipse fill="none" stroke="black" cx="660.52" cy="-213.85" rx="27.85" ry="27.85"/>
<text text-anchor="middle" x="660.52" y="-209.18" font-family="Times,serif" font-size="14.00">q6</text>
</g>
<!-- q7 -->
<g id="node6" class="node">
<title>q7</title>
<ellipse fill="none" stroke="black" cx="761.22" cy="-253.85" rx="23.85" ry="23.85"/>
<ellipse fill="none" stroke="black" cx="761.22" cy="-253.85" rx="27.85" ry="27.85"/>
<text text-anchor="middle" x="761.22" y="-249.18" font-family="Times,serif" font-size="14.00">q7</text>
</g>
<!-- q6&#45;&gt;q7 -->
<g id="edge3" class="edge">
<title>q6&#45;&gt;q7</title>
<path fill="none" stroke="black" d="M686.68,-224.05C698.17,-228.7 711.98,-234.3 724.51,-239.38"/>
<polygon fill="black" stroke="black" points="723.12,-242.59 733.7,-243.1 725.75,-236.1 723.12,-242.59"/>
<text text-anchor="middle" x="710.87" y="-239" font-family="Times,serif" font-size="14.00">b</text>
</g>
<!-- q5 -->
<g id="node10" class="node">
<title>q5</title>
<ellipse fill="none" stroke="black" cx="375.12" cy="-102.85" rx="23.85" ry="23.85"/>
<ellipse fill="none" stroke="black" cx="375.12" cy="-102.85" rx="27.85" ry="27.85"/>
<text text-anchor="middle" x="375.12" y="-98.18" font-family="Times,serif" font-size="14.00">q5</text>
</g>
<!-- q7&#45;&gt;q5 -->
<g id="edge7" class="edge">
<title>q7&#45;&gt;q5</title>
<path fill="none" stroke="black" d="M733.1,-255.61C724.55,-255.96 715.07,-256.14 706.37,-255.85 608.62,-252.54 580.69,-252.4 489.97,-215.85 457.09,-202.61 446.35,-200.59 420.97,-175.85 409.88,-165.04 400.39,-150.94 393.03,-138.02"/>
<polygon fill="black" stroke="black" points="396.16,-136.45 388.32,-129.32 390.01,-139.78 396.16,-136.45"/>
<text text-anchor="middle" x="589.17" y="-254.81" font-family="Times,serif" font-size="14.00">epsilon</text>
</g>
<!-- q8 -->
<g id="node7" class="node">
<title>q8</title>
<ellipse fill="none" stroke="black" cx="660.52" cy="-139.85" rx="23.85" ry="23.85"/>
<ellipse fill="none" stroke="black" cx="660.52" cy="-139.85" rx="27.85" ry="27.85"/>
<text text-anchor="middle" x="660.52" y="-135.18" font-family="Times,serif" font-size="14.00">q8</text>
</g>
<!-- q9 -->
<g id="node8" class="node">
<title>q9</title>
<ellipse fill="none" stroke="black" cx="761.22" cy="-106.85" rx="23.85" ry="23.85"/>
<ellipse fill="none" stroke="black" cx="761.22" cy="-106.85" rx="27.85" ry="27.85"/>
<text text-anchor="middle" x="761.22" y="-102.18" font-family="Times,serif" font-size="14.00">q9</text>
</g>
<!-- q8&#45;&gt;q9 -->
<g id="edge4" class="edge">
<title>q8&#45;&gt;q9</title>
<path fill="none" stroke="black" d="M687.45,-131.18C698.56,-127.47 711.73,-123.06 723.79,-119.03"/>
<polygon fill="black" stroke="black" points="724.65,-122.43 733.03,-115.94 722.43,-115.79 724.65,-122.43"/>
<text text-anchor="middle" x="710.87" y="-128.29" font-family="Times,serif" font-size="14.00">c</text>
</g>
<!-- q9&#45;&gt;q5 -->
<g id="edge8" class="edge">
<title>q9&#45;&gt;q5</title>
<path fill="none" stroke="black" d="M732.94,-104.97C719.52,-104.14 703.11,-103.26 688.37,-102.85 589.77,-100.11 473.58,-101.26 414.62,-102.16"/>
<polygon fill="black" stroke="black" points="414.73,-98.66 404.79,-102.32 414.84,-105.66 414.73,-98.66"/>
<text text-anchor="middle" x="589.17" y="-105.41" font-family="Times,serif" font-size="14.00">epsilon</text>
</g>
<!-- q4 -->
<g id="node9" class="node">
<title>q4</title>
<ellipse fill="none" stroke="black" cx="517.82" cy="-178.85" rx="23.85" ry="23.85"/>
<ellipse fill="none" stroke="black" cx="517.82" cy="-178.85" rx="27.85" ry="27.85"/>
<text text-anchor="middle" x="517.82" y="-174.18" font-family="Times,serif" font-size="14.00">q4</text>
</g>
<!-- q4&#45;&gt;q6 -->
<g id="edge5" class="edge">
<title>q4&#45;&gt;q6</title>
<path fill="none" stroke="black" d="M545.29,-185.43C567,-190.84 598.01,-198.55 622.24,-204.58"/>
<polygon fill="black" stroke="black" points="621.16,-207.91 631.71,-206.93 622.85,-201.12 621.16,-207.91"/>
<text text-anchor="middle" x="589.17" y="-206.48" font-family="Times,serif" font-size="14.00">epsilon</text>
</g>
<!-- q4&#45;&gt;q8 -->
<g id="edge6" class="edge">
<title>q4&#45;&gt;q8</title>
<path fill="none" stroke="black" d="M544.96,-171.61C566.77,-165.56 598.13,-156.87 622.53,-150.11"/>
<polygon fill="black" stroke="black" points="623.37,-153.5 632.07,-147.46 621.5,-146.76 623.37,-153.5"/>
<text text-anchor="middle" x="589.17" y="-170.19" font-family="Times,serif" font-size="14.00">epsilon</text>
</g>
<!-- q5&#45;&gt;q3 -->
<g id="edge11" class="edge">
<title>q5&#45;&gt;q3</title>
<path fill="none" stroke="black" d="M391.7,-80.02C399.45,-70.26 409.59,-59.54 420.97,-52.6 438.39,-41.98 460.26,-35.89 478.71,-32.41"/>
<polygon fill="black" stroke="black" points="479.19,-35.88 488.48,-30.77 478.04,-28.97 479.19,-35.88"/>
<text text-anchor="middle" x="446.47" y="-56.55" font-family="Times,serif" font-size="14.00">epsilon</text>
</g>
<!-- q5&#45;&gt;q4 -->
<g id="edge10" class="edge">
<title>q5&#45;&gt;q4</title>
<path fill="none" stroke="black" d="M399.99,-115.74C422.73,-128.03 457.2,-146.64 482.81,-160.48"/>
<polygon fill="black" stroke="black" points="481.04,-163.5 491.5,-165.18 484.37,-157.34 481.04,-163.5"/>
<text text-anchor="middle" x="446.47" y="-158.22" font-family="Times,serif" font-size="14.00">epsilon</text>
</g>
<!-- q2&#45;&gt;q4 -->
<g id="edge9" class="edge">
<title>q2&#45;&gt;q4</title>
<path fill="none" stroke="black" d="M396.58,-284.82C420.65,-263.61 460.78,-228.24 487.99,-204.26"/>
<polygon fill="black" stroke="black" points="490.01,-207.14 495.2,-197.9 485.38,-201.89 490.01,-207.14"/>
<text text-anchor="middle" x="446.47" y="-266.69" font-family="Times,serif" font-size="14.00">epsilon</text>
</g>
</g>
</svg>
