<?xml version="1.0" encoding="UTF-8" standalone="no"?>
<!DOCTYPE svg PUBLIC "-//W3C//DTD SVG 1.1//EN"
 "http://www.w3.org/Graphics/SVG/1.1/DTD/svg11.dtd">
<!-- Generated by graphviz version 12.2.1 (0)
 -->
<!-- Title: Automaton Pages: 1 -->
<svg width="1125pt" height="222pt"
 viewBox="0.00 0.00 1125.22 221.91" xmlns="http://www.w3.org/2000/svg" xmlns:xlink="http://www.w3.org/1999/xlink">
<g id="graph0" class="graph" transform="scale(1 1) rotate(0) translate(4 217.91)">
<title>Automaton</title>
<polygon fill="white" stroke="none" points="-4,4 -4,-217.91 1121.22,-217.91 1121.22,4 -4,4"/>
<!-- q9 -->
<g id="node1" class="node">
<title>q9</title>
<ellipse fill="none" stroke="black" cx="1089.37" cy="-32.06" rx="23.85" ry="23.85"/>
<ellipse fill="none" stroke="black" cx="1089.37" cy="-32.06" rx="27.85" ry="27.85"/>
<text text-anchor="middle" x="1089.37" y="-27.38" font-family="Times,serif" font-size="14.00">q9</text>
</g>
<!-- init -->
<g id="node2" class="node">
<title>init</title>
<ellipse fill="none" stroke="black" cx="32.06" cy="-32.06" rx="28.06" ry="28.06"/>
<ellipse fill="none" stroke="black" cx="32.06" cy="-32.06" rx="32.06" ry="32.06"/>
<text text-anchor="middle" x="32.06" y="-27.38" font-family="Times,serif" font-size="14.00">init</text>
</g>
<!-- q0 -->
<g id="node3" class="node">
<title>q0</title>
<ellipse fill="none" stroke="black" cx="132.47" cy="-32.06" rx="23.85" ry="23.85"/>
<ellipse fill="none" stroke="black" cx="132.47" cy="-32.06" rx="27.85" ry="27.85"/>
<text text-anchor="middle" x="132.47" y="-27.38" font-family="Times,serif" font-size="14.00">q0</text>
</g>
<!-- init&#45;&gt;q0 -->
<g id="edge1" class="edge">
<title>init&#45;&gt;q0</title>
<path fill="none" stroke="black" d="M64.47,-32.06C73.48,-32.06 83.42,-32.06 92.82,-32.06"/>
<polygon fill="black" stroke="black" points="92.82,-35.56 102.82,-32.06 92.82,-28.56 92.82,-35.56"/>
<text text-anchor="middle" x="84.37" y="-36.01" font-family="Times,serif" font-size="14.00"> </text>
</g>
<!-- q2 -->
<g id="node8" class="node">
<title>q2</title>
<ellipse fill="none" stroke="black" cx="275.17" cy="-86.06" rx="23.85" ry="23.85"/>
<ellipse fill="none" stroke="black" cx="275.17" cy="-86.06" rx="27.85" ry="27.85"/>
<text text-anchor="middle" x="275.17" y="-81.38" font-family="Times,serif" font-size="14.00">q2</text>
</g>
<!-- q0&#45;&gt;q2 -->
<g id="edge8" class="edge">
<title>q0&#45;&gt;q2</title>
<path fill="none" stroke="black" d="M158.95,-41.84C181.16,-50.36 213.62,-62.82 238.43,-72.34"/>
<polygon fill="black" stroke="black" points="236.88,-75.5 247.47,-75.81 239.38,-68.96 236.88,-75.5"/>
<text text-anchor="middle" x="203.82" y="-72.54" font-family="Times,serif" font-size="14.00">epsilon</text>
</g>
<!-- q1 -->
<g id="node10" class="node">
<title>q1</title>
<ellipse fill="none" stroke="black" cx="845.97" cy="-32.06" rx="23.85" ry="23.85"/>
<ellipse fill="none" stroke="black" cx="845.97" cy="-32.06" rx="27.85" ry="27.85"/>
<text text-anchor="middle" x="845.97" y="-27.38" font-family="Times,serif" font-size="14.00">q1</text>
</g>
<!-- q0&#45;&gt;q1 -->
<g id="edge9" class="edge">
<title>q0&#45;&gt;q1</title>
<path fill="none" stroke="black" d="M160.34,-27.17C188.58,-22.47 234.34,-16.06 274.17,-16.06 274.17,-16.06 274.17,-16.06 704.27,-16.06 739.12,-16.06 778.51,-20.96 806.74,-25.34"/>
<polygon fill="black" stroke="black" points="806.18,-28.8 816.61,-26.93 807.29,-21.89 806.18,-28.8"/>
<text text-anchor="middle" x="489.22" y="-20.01" font-family="Times,serif" font-size="14.00">epsilon</text>
</g>
<!-- q4 -->
<g id="node4" class="node">
<title>q4</title>
<ellipse fill="none" stroke="black" cx="417.87" cy="-186.06" rx="23.85" ry="23.85"/>
<ellipse fill="none" stroke="black" cx="417.87" cy="-186.06" rx="27.85" ry="27.85"/>
<text text-anchor="middle" x="417.87" y="-181.38" font-family="Times,serif" font-size="14.00">q4</text>
</g>
<!-- q5 -->
<g id="node5" class="node">
<title>q5</title>
<ellipse fill="none" stroke="black" cx="560.57" cy="-186.06" rx="23.85" ry="23.85"/>
<ellipse fill="none" stroke="black" cx="560.57" cy="-186.06" rx="27.85" ry="27.85"/>
<text text-anchor="middle" x="560.57" y="-181.38" font-family="Times,serif" font-size="14.00">q5</text>
</g>
<!-- q4&#45;&gt;q5 -->
<g id="edge2" class="edge">
<title>q4&#45;&gt;q5</title>
<path fill="none" stroke="black" d="M446,-186.06C467.31,-186.06 497.27,-186.06 521.06,-186.06"/>
<polygon fill="black" stroke="black" points="521.01,-189.56 531.01,-186.06 521.01,-182.56 521.01,-189.56"/>
<text text-anchor="middle" x="489.22" y="-190.01" font-family="Times,serif" font-size="14.00">0</text>
</g>
<!-- q3 -->
<g id="node9" class="node">
<title>q3</title>
<ellipse fill="none" stroke="black" cx="703.27" cy="-80.06" rx="23.85" ry="23.85"/>
<ellipse fill="none" stroke="black" cx="703.27" cy="-80.06" rx="27.85" ry="27.85"/>
<text text-anchor="middle" x="703.27" y="-75.38" font-family="Times,serif" font-size="14.00">q3</text>
</g>
<!-- q5&#45;&gt;q3 -->
<g id="edge6" class="edge">
<title>q5&#45;&gt;q3</title>
<path fill="none" stroke="black" d="M585.25,-172.18C605.17,-160.11 634.06,-141.68 657.42,-123.06 663.43,-118.27 669.56,-112.82 675.29,-107.44"/>
<polygon fill="black" stroke="black" points="677.46,-110.21 682.24,-100.76 672.61,-105.17 677.46,-110.21"/>
<text text-anchor="middle" x="631.92" y="-162.91" font-family="Times,serif" font-size="14.00">epsilon</text>
</g>
<!-- q6 -->
<g id="node6" class="node">
<title>q6</title>
<ellipse fill="none" stroke="black" cx="417.87" cy="-112.06" rx="23.85" ry="23.85"/>
<ellipse fill="none" stroke="black" cx="417.87" cy="-112.06" rx="27.85" ry="27.85"/>
<text text-anchor="middle" x="417.87" y="-107.38" font-family="Times,serif" font-size="14.00">q6</text>
</g>
<!-- q7 -->
<g id="node7" class="node">
<title>q7</title>
<ellipse fill="none" stroke="black" cx="560.57" cy="-112.06" rx="23.85" ry="23.85"/>
<ellipse fill="none" stroke="black" cx="560.57" cy="-112.06" rx="27.85" ry="27.85"/>
<text text-anchor="middle" x="560.57" y="-107.38" font-family="Times,serif" font-size="14.00">q7</text>
</g>
<!-- q6&#45;&gt;q7 -->
<g id="edge3" class="edge">
<title>q6&#45;&gt;q7</title>
<path fill="none" stroke="black" d="M446,-112.06C467.31,-112.06 497.27,-112.06 521.06,-112.06"/>
<polygon fill="black" stroke="black" points="521.01,-115.56 531.01,-112.06 521.01,-108.56 521.01,-115.56"/>
<text text-anchor="middle" x="489.22" y="-116.01" font-family="Times,serif" font-size="14.00">1</text>
</g>
<!-- q7&#45;&gt;q3 -->
<g id="edge7" class="edge">
<title>q7&#45;&gt;q3</title>
<path fill="none" stroke="black" d="M588.04,-106.04C609.75,-101.1 640.76,-94.05 664.99,-88.54"/>
<polygon fill="black" stroke="black" points="665.47,-92.02 674.45,-86.39 663.92,-85.19 665.47,-92.02"/>
<text text-anchor="middle" x="631.92" y="-105.66" font-family="Times,serif" font-size="14.00">epsilon</text>
</g>
<!-- q2&#45;&gt;q4 -->
<g id="edge4" class="edge">
<title>q2&#45;&gt;q4</title>
<path fill="none" stroke="black" d="M296.18,-104.58C303.75,-111.29 312.59,-118.76 321.02,-125.06 341.12,-140.06 364.9,-155.21 383.74,-166.66"/>
<polygon fill="black" stroke="black" points="381.7,-169.52 392.08,-171.67 385.31,-163.52 381.7,-169.52"/>
<text text-anchor="middle" x="346.52" y="-161.98" font-family="Times,serif" font-size="14.00">epsilon</text>
</g>
<!-- q2&#45;&gt;q6 -->
<g id="edge5" class="edge">
<title>q2&#45;&gt;q6</title>
<path fill="none" stroke="black" d="M302.97,-91.01C324.48,-94.99 354.96,-100.62 378.97,-105.06"/>
<polygon fill="black" stroke="black" points="378.22,-108.48 388.69,-106.85 379.49,-101.59 378.22,-108.48"/>
<text text-anchor="middle" x="346.52" y="-107.6" font-family="Times,serif" font-size="14.00">epsilon</text>
</g>
<!-- q3&#45;&gt;q2 -->
<g id="edge10" class="edge">
<title>q3&#45;&gt;q2</title>
<path fill="none" stroke="black" d="M675.1,-78.45C620.87,-75.51 495.35,-69.98 390.02,-75.06 364.8,-76.27 336.55,-79 314.5,-81.43"/>
<polygon fill="black" stroke="black" points="314.31,-77.93 304.76,-82.53 315.09,-84.88 314.31,-77.93"/>
<text text-anchor="middle" x="489.22" y="-77.07" font-family="Times,serif" font-size="14.00">epsilon</text>
</g>
<!-- q3&#45;&gt;q1 -->
<g id="edge11" class="edge">
<title>q3&#45;&gt;q1</title>
<path fill="none" stroke="black" d="M730.08,-71.26C752.09,-63.74 783.99,-52.86 808.6,-44.47"/>
<polygon fill="black" stroke="black" points="809.56,-47.84 817.9,-41.3 807.3,-41.21 809.56,-47.84"/>
<text text-anchor="middle" x="774.62" y="-68.48" font-family="Times,serif" font-size="14.00">epsilon</text>
</g>
<!-- q8 -->
<g id="node11" class="node">
<title>q8</title>
<ellipse fill="none" stroke="black" cx="988.67" cy="-32.06" rx="23.85" ry="23.85"/>
<ellipse fill="none" stroke="black" cx="988.67" cy="-32.06" rx="27.85" ry="27.85"/>
<text text-anchor="middle" x="988.67" y="-27.38" font-family="Times,serif" font-size="14.00">q8</text>
</g>
<!-- q1&#45;&gt;q8 -->
<g id="edge13" class="edge">
<title>q1&#45;&gt;q8</title>
<path fill="none" stroke="black" d="M874.1,-32.06C895.41,-32.06 925.37,-32.06 949.17,-32.06"/>
<polygon fill="black" stroke="black" points="949.11,-35.56 959.11,-32.06 949.11,-28.56 949.11,-35.56"/>
<text text-anchor="middle" x="917.32" y="-36.01" font-family="Times,serif" font-size="14.00">epsilon</text>
</g>
<!-- q8&#45;&gt;q9 -->
<g id="edge12" class="edge">
<title>q8&#45;&gt;q9</title>
<path fill="none" stroke="black" d="M1016.9,-32.06C1027.04,-32.06 1038.76,-32.06 1049.73,-32.06"/>
<polygon fill="black" stroke="black" points="1049.72,-35.56 1059.72,-32.06 1049.72,-28.56 1049.72,-35.56"/>
<text text-anchor="middle" x="1039.02" y="-36.01" font-family="Times,serif" font-size="14.00">1</text>
</g>
</g>
</svg>
