<?xml version="1.0" encoding="UTF-8" standalone="no"?>
<!DOCTYPE svg PUBLIC "-//W3C//DTD SVG 1.1//EN"
 "http://www.w3.org/Graphics/SVG/1.1/DTD/svg11.dtd">
<!-- Generated by graphviz version 12.2.1 (0)
 -->
<!-- Title: Automaton Pages: 1 -->
<svg width="1688pt" height="162pt"
 viewBox="0.00 0.00 1687.79 162.33" xmlns="http://www.w3.org/2000/svg" xmlns:xlink="http://www.w3.org/1999/xlink">
<g id="graph0" class="graph" transform="scale(1 1) rotate(0) translate(4 158.33)">
<title>Automaton</title>
<polygon fill="white" stroke="none" points="-4,4 -4,-158.33 1683.79,-158.33 1683.79,4 -4,4"/>
<!-- q13 -->
<g id="node1" class="node">
<title>q13</title>
<ellipse fill="none" stroke="black" cx="1645.62" cy="-77.16" rx="30.16" ry="30.16"/>
<ellipse fill="none" stroke="black" cx="1645.62" cy="-77.16" rx="34.16" ry="34.16"/>
<text text-anchor="middle" x="1645.62" y="-72.49" font-family="Times,serif" font-size="14.00">q13</text>
</g>
<!-- init -->
<g id="node2" class="node">
<title>init</title>
<ellipse fill="none" stroke="black" cx="32.06" cy="-77.16" rx="28.06" ry="28.06"/>
<ellipse fill="none" stroke="black" cx="32.06" cy="-77.16" rx="32.06" ry="32.06"/>
<text text-anchor="middle" x="32.06" y="-72.49" font-family="Times,serif" font-size="14.00">init</text>
</g>
<!-- q0 -->
<g id="node3" class="node">
<title>q0</title>
<ellipse fill="none" stroke="black" cx="132.47" cy="-77.16" rx="23.85" ry="23.85"/>
<ellipse fill="none" stroke="black" cx="132.47" cy="-77.16" rx="27.85" ry="27.85"/>
<text text-anchor="middle" x="132.47" y="-72.49" font-family="Times,serif" font-size="14.00">q0</text>
</g>
<!-- init&#45;&gt;q0 -->
<g id="edge1" class="edge">
<title>init&#45;&gt;q0</title>
<path fill="none" stroke="black" d="M64.47,-77.16C73.48,-77.16 83.42,-77.16 92.82,-77.16"/>
<polygon fill="black" stroke="black" points="92.82,-80.66 102.82,-77.16 92.82,-73.66 92.82,-80.66"/>
<text text-anchor="middle" x="84.37" y="-81.11" font-family="Times,serif" font-size="14.00"> </text>
</g>
<!-- q2 -->
<g id="node4" class="node">
<title>q2</title>
<ellipse fill="none" stroke="black" cx="275.17" cy="-114.16" rx="23.85" ry="23.85"/>
<ellipse fill="none" stroke="black" cx="275.17" cy="-114.16" rx="27.85" ry="27.85"/>
<text text-anchor="middle" x="275.17" y="-109.49" font-family="Times,serif" font-size="14.00">q2</text>
</g>
<!-- q0&#45;&gt;q2 -->
<g id="edge4" class="edge">
<title>q0&#45;&gt;q2</title>
<path fill="none" stroke="black" d="M159.93,-84.12C181.65,-89.83 212.65,-97.99 236.88,-104.36"/>
<polygon fill="black" stroke="black" points="235.8,-107.69 246.36,-106.85 237.58,-100.92 235.8,-107.69"/>
<text text-anchor="middle" x="203.82" y="-106.15" font-family="Times,serif" font-size="14.00">epsilon</text>
</g>
<!-- q4 -->
<g id="node6" class="node">
<title>q4</title>
<ellipse fill="none" stroke="black" cx="275.17" cy="-40.16" rx="23.85" ry="23.85"/>
<ellipse fill="none" stroke="black" cx="275.17" cy="-40.16" rx="27.85" ry="27.85"/>
<text text-anchor="middle" x="275.17" y="-35.49" font-family="Times,serif" font-size="14.00">q4</text>
</g>
<!-- q0&#45;&gt;q4 -->
<g id="edge5" class="edge">
<title>q0&#45;&gt;q4</title>
<path fill="none" stroke="black" d="M159.93,-70.2C181.65,-64.49 212.65,-56.34 236.88,-49.97"/>
<polygon fill="black" stroke="black" points="237.58,-53.4 246.36,-47.48 235.8,-46.64 237.58,-53.4"/>
<text text-anchor="middle" x="203.82" y="-69.15" font-family="Times,serif" font-size="14.00">epsilon</text>
</g>
<!-- q3 -->
<g id="node5" class="node">
<title>q3</title>
<ellipse fill="none" stroke="black" cx="375.87" cy="-114.16" rx="23.85" ry="23.85"/>
<ellipse fill="none" stroke="black" cx="375.87" cy="-114.16" rx="27.85" ry="27.85"/>
<text text-anchor="middle" x="375.87" y="-109.49" font-family="Times,serif" font-size="14.00">q3</text>
</g>
<!-- q2&#45;&gt;q3 -->
<g id="edge2" class="edge">
<title>q2&#45;&gt;q3</title>
<path fill="none" stroke="black" d="M303.4,-114.16C313.54,-114.16 325.25,-114.16 336.22,-114.16"/>
<polygon fill="black" stroke="black" points="336.21,-117.66 346.21,-114.16 336.21,-110.66 336.21,-117.66"/>
<text text-anchor="middle" x="325.52" y="-118.11" font-family="Times,serif" font-size="14.00">0</text>
</g>
<!-- q1 -->
<g id="node8" class="node">
<title>q1</title>
<ellipse fill="none" stroke="black" cx="518.57" cy="-77.16" rx="23.85" ry="23.85"/>
<ellipse fill="none" stroke="black" cx="518.57" cy="-77.16" rx="27.85" ry="27.85"/>
<text text-anchor="middle" x="518.57" y="-72.49" font-family="Times,serif" font-size="14.00">q1</text>
</g>
<!-- q3&#45;&gt;q1 -->
<g id="edge6" class="edge">
<title>q3&#45;&gt;q1</title>
<path fill="none" stroke="black" d="M403.33,-107.2C425.05,-101.49 456.06,-93.34 480.29,-86.97"/>
<polygon fill="black" stroke="black" points="480.98,-90.4 489.76,-84.48 479.2,-83.64 480.98,-90.4"/>
<text text-anchor="middle" x="447.22" y="-106.15" font-family="Times,serif" font-size="14.00">epsilon</text>
</g>
<!-- q5 -->
<g id="node7" class="node">
<title>q5</title>
<ellipse fill="none" stroke="black" cx="375.87" cy="-40.16" rx="23.85" ry="23.85"/>
<ellipse fill="none" stroke="black" cx="375.87" cy="-40.16" rx="27.85" ry="27.85"/>
<text text-anchor="middle" x="375.87" y="-35.49" font-family="Times,serif" font-size="14.00">q5</text>
</g>
<!-- q4&#45;&gt;q5 -->
<g id="edge3" class="edge">
<title>q4&#45;&gt;q5</title>
<path fill="none" stroke="black" d="M303.4,-40.16C313.54,-40.16 325.25,-40.16 336.22,-40.16"/>
<polygon fill="black" stroke="black" points="336.21,-43.66 346.21,-40.16 336.21,-36.66 336.21,-43.66"/>
<text text-anchor="middle" x="325.52" y="-44.11" font-family="Times,serif" font-size="14.00">1</text>
</g>
<!-- q5&#45;&gt;q1 -->
<g id="edge7" class="edge">
<title>q5&#45;&gt;q1</title>
<path fill="none" stroke="black" d="M403.33,-47.12C425.05,-52.83 456.06,-60.99 480.29,-67.36"/>
<polygon fill="black" stroke="black" points="479.2,-70.69 489.76,-69.85 480.98,-63.92 479.2,-70.69"/>
<text text-anchor="middle" x="447.22" y="-69.15" font-family="Times,serif" font-size="14.00">epsilon</text>
</g>
<!-- q6 -->
<g id="node13" class="node">
<title>q6</title>
<ellipse fill="none" stroke="black" cx="661.27" cy="-77.16" rx="23.85" ry="23.85"/>
<ellipse fill="none" stroke="black" cx="661.27" cy="-77.16" rx="27.85" ry="27.85"/>
<text text-anchor="middle" x="661.27" y="-72.49" font-family="Times,serif" font-size="14.00">q6</text>
</g>
<!-- q1&#45;&gt;q6 -->
<g id="edge14" class="edge">
<title>q1&#45;&gt;q6</title>
<path fill="none" stroke="black" d="M546.7,-77.16C568.01,-77.16 597.97,-77.16 621.76,-77.16"/>
<polygon fill="black" stroke="black" points="621.71,-80.66 631.71,-77.16 621.71,-73.66 621.71,-80.66"/>
<text text-anchor="middle" x="589.92" y="-81.11" font-family="Times,serif" font-size="14.00">epsilon</text>
</g>
<!-- q8 -->
<g id="node9" class="node">
<title>q8</title>
<ellipse fill="none" stroke="black" cx="810.29" cy="-117.16" rx="23.85" ry="23.85"/>
<ellipse fill="none" stroke="black" cx="810.29" cy="-117.16" rx="27.85" ry="27.85"/>
<text text-anchor="middle" x="810.29" y="-112.49" font-family="Times,serif" font-size="14.00">q8</text>
</g>
<!-- q9 -->
<g id="node10" class="node">
<title>q9</title>
<ellipse fill="none" stroke="black" cx="923.61" cy="-117.16" rx="23.85" ry="23.85"/>
<ellipse fill="none" stroke="black" cx="923.61" cy="-117.16" rx="27.85" ry="27.85"/>
<text text-anchor="middle" x="923.61" y="-112.49" font-family="Times,serif" font-size="14.00">q9</text>
</g>
<!-- q8&#45;&gt;q9 -->
<g id="edge8" class="edge">
<title>q8&#45;&gt;q9</title>
<path fill="none" stroke="black" d="M838.52,-117.16C852.13,-117.16 868.84,-117.16 883.78,-117.16"/>
<polygon fill="black" stroke="black" points="883.76,-120.66 893.76,-117.16 883.76,-113.66 883.76,-120.66"/>
<text text-anchor="middle" x="866.95" y="-121.11" font-family="Times,serif" font-size="14.00">0</text>
</g>
<!-- q7 -->
<g id="node14" class="node">
<title>q7</title>
<ellipse fill="none" stroke="black" cx="1072.63" cy="-77.16" rx="23.85" ry="23.85"/>
<ellipse fill="none" stroke="black" cx="1072.63" cy="-77.16" rx="27.85" ry="27.85"/>
<text text-anchor="middle" x="1072.63" y="-72.49" font-family="Times,serif" font-size="14.00">q7</text>
</g>
<!-- q9&#45;&gt;q7 -->
<g id="edge12" class="edge">
<title>q9&#45;&gt;q7</title>
<path fill="none" stroke="black" d="M950.9,-110.01C974.21,-103.67 1008.5,-94.34 1034.59,-87.24"/>
<polygon fill="black" stroke="black" points="1035.38,-90.65 1044.11,-84.65 1033.54,-83.9 1035.38,-90.65"/>
<text text-anchor="middle" x="1001.28" y="-107.03" font-family="Times,serif" font-size="14.00">epsilon</text>
</g>
<!-- q10 -->
<g id="node11" class="node">
<title>q10</title>
<ellipse fill="none" stroke="black" cx="810.29" cy="-37.16" rx="30.16" ry="30.16"/>
<ellipse fill="none" stroke="black" cx="810.29" cy="-37.16" rx="34.16" ry="34.16"/>
<text text-anchor="middle" x="810.29" y="-32.49" font-family="Times,serif" font-size="14.00">q10</text>
</g>
<!-- q11 -->
<g id="node12" class="node">
<title>q11</title>
<ellipse fill="none" stroke="black" cx="923.61" cy="-37.16" rx="30.16" ry="30.16"/>
<ellipse fill="none" stroke="black" cx="923.61" cy="-37.16" rx="34.16" ry="34.16"/>
<text text-anchor="middle" x="923.61" y="-32.49" font-family="Times,serif" font-size="14.00">q11</text>
</g>
<!-- q10&#45;&gt;q11 -->
<g id="edge9" class="edge">
<title>q10&#45;&gt;q11</title>
<path fill="none" stroke="black" d="M844.69,-37.16C855.14,-37.16 866.86,-37.16 877.96,-37.16"/>
<polygon fill="black" stroke="black" points="877.72,-40.66 887.72,-37.16 877.72,-33.66 877.72,-40.66"/>
<text text-anchor="middle" x="866.95" y="-41.11" font-family="Times,serif" font-size="14.00">1</text>
</g>
<!-- q11&#45;&gt;q7 -->
<g id="edge13" class="edge">
<title>q11&#45;&gt;q7</title>
<path fill="none" stroke="black" d="M956.88,-45.94C979.79,-52.18 1010.6,-60.56 1034.53,-67.07"/>
<polygon fill="black" stroke="black" points="1033.29,-70.36 1043.86,-69.61 1035.13,-63.61 1033.29,-70.36"/>
<text text-anchor="middle" x="1001.28" y="-68.18" font-family="Times,serif" font-size="14.00">epsilon</text>
</g>
<!-- q6&#45;&gt;q8 -->
<g id="edge10" class="edge">
<title>q6&#45;&gt;q8</title>
<path fill="none" stroke="black" d="M688.55,-84.31C711.86,-90.66 746.16,-99.99 772.25,-107.09"/>
<polygon fill="black" stroke="black" points="771.2,-110.43 781.77,-109.68 773.04,-103.67 771.2,-110.43"/>
<text text-anchor="middle" x="732.62" y="-107.03" font-family="Times,serif" font-size="14.00">epsilon</text>
</g>
<!-- q6&#45;&gt;q10 -->
<g id="edge11" class="edge">
<title>q6&#45;&gt;q10</title>
<path fill="none" stroke="black" d="M688.55,-70.01C709.97,-64.19 740.66,-55.84 765.73,-49.01"/>
<polygon fill="black" stroke="black" points="766.62,-52.4 775.35,-46.4 764.78,-45.65 766.62,-52.4"/>
<text text-anchor="middle" x="732.62" y="-68.18" font-family="Times,serif" font-size="14.00">epsilon</text>
</g>
<!-- q12 -->
<g id="node19" class="node">
<title>q12</title>
<ellipse fill="none" stroke="black" cx="1221.64" cy="-77.16" rx="30.16" ry="30.16"/>
<ellipse fill="none" stroke="black" cx="1221.64" cy="-77.16" rx="34.16" ry="34.16"/>
<text text-anchor="middle" x="1221.64" y="-72.49" font-family="Times,serif" font-size="14.00">q12</text>
</g>
<!-- q7&#45;&gt;q12 -->
<g id="edge21" class="edge">
<title>q7&#45;&gt;q12</title>
<path fill="none" stroke="black" d="M1100.93,-77.16C1121.84,-77.16 1151.14,-77.16 1175.51,-77.16"/>
<polygon fill="black" stroke="black" points="1175.51,-80.66 1185.51,-77.16 1175.51,-73.66 1175.51,-80.66"/>
<text text-anchor="middle" x="1143.98" y="-81.11" font-family="Times,serif" font-size="14.00">epsilon</text>
</g>
<!-- q14 -->
<g id="node15" class="node">
<title>q14</title>
<ellipse fill="none" stroke="black" cx="1376.97" cy="-120.16" rx="30.16" ry="30.16"/>
<ellipse fill="none" stroke="black" cx="1376.97" cy="-120.16" rx="34.16" ry="34.16"/>
<text text-anchor="middle" x="1376.97" y="-115.49" font-family="Times,serif" font-size="14.00">q14</text>
</g>
<!-- q15 -->
<g id="node16" class="node">
<title>q15</title>
<ellipse fill="none" stroke="black" cx="1490.29" cy="-120.16" rx="30.16" ry="30.16"/>
<ellipse fill="none" stroke="black" cx="1490.29" cy="-120.16" rx="34.16" ry="34.16"/>
<text text-anchor="middle" x="1490.29" y="-115.49" font-family="Times,serif" font-size="14.00">q15</text>
</g>
<!-- q14&#45;&gt;q15 -->
<g id="edge15" class="edge">
<title>q14&#45;&gt;q15</title>
<path fill="none" stroke="black" d="M1411.37,-120.16C1421.83,-120.16 1433.54,-120.16 1444.64,-120.16"/>
<polygon fill="black" stroke="black" points="1444.4,-123.66 1454.4,-120.16 1444.4,-116.66 1444.4,-123.66"/>
<text text-anchor="middle" x="1433.63" y="-124.11" font-family="Times,serif" font-size="14.00">0</text>
</g>
<!-- q15&#45;&gt;q13 -->
<g id="edge19" class="edge">
<title>q15&#45;&gt;q13</title>
<path fill="none" stroke="black" d="M1523.44,-111.15C1546.05,-104.81 1576.58,-96.25 1601.34,-89.3"/>
<polygon fill="black" stroke="black" points="1602.12,-92.72 1610.8,-86.65 1600.23,-85.98 1602.12,-92.72"/>
<text text-anchor="middle" x="1567.96" y="-108.98" font-family="Times,serif" font-size="14.00">epsilon</text>
</g>
<!-- q16 -->
<g id="node17" class="node">
<title>q16</title>
<ellipse fill="none" stroke="black" cx="1376.97" cy="-34.16" rx="30.16" ry="30.16"/>
<ellipse fill="none" stroke="black" cx="1376.97" cy="-34.16" rx="34.16" ry="34.16"/>
<text text-anchor="middle" x="1376.97" y="-29.49" font-family="Times,serif" font-size="14.00">q16</text>
</g>
<!-- q17 -->
<g id="node18" class="node">
<title>q17</title>
<ellipse fill="none" stroke="black" cx="1490.29" cy="-34.16" rx="30.16" ry="30.16"/>
<ellipse fill="none" stroke="black" cx="1490.29" cy="-34.16" rx="34.16" ry="34.16"/>
<text text-anchor="middle" x="1490.29" y="-29.49" font-family="Times,serif" font-size="14.00">q17</text>
</g>
<!-- q16&#45;&gt;q17 -->
<g id="edge16" class="edge">
<title>q16&#45;&gt;q17</title>
<path fill="none" stroke="black" d="M1411.37,-34.16C1421.83,-34.16 1433.54,-34.16 1444.64,-34.16"/>
<polygon fill="black" stroke="black" points="1444.4,-37.66 1454.4,-34.16 1444.4,-30.66 1444.4,-37.66"/>
<text text-anchor="middle" x="1433.63" y="-38.11" font-family="Times,serif" font-size="14.00">1</text>
</g>
<!-- q17&#45;&gt;q13 -->
<g id="edge20" class="edge">
<title>q17&#45;&gt;q13</title>
<path fill="none" stroke="black" d="M1523.44,-43.18C1546.05,-49.52 1576.58,-58.08 1601.34,-65.03"/>
<polygon fill="black" stroke="black" points="1600.23,-68.35 1610.8,-67.68 1602.12,-61.61 1600.23,-68.35"/>
<text text-anchor="middle" x="1567.96" y="-65.98" font-family="Times,serif" font-size="14.00">epsilon</text>
</g>
<!-- q12&#45;&gt;q14 -->
<g id="edge17" class="edge">
<title>q12&#45;&gt;q14</title>
<path fill="none" stroke="black" d="M1254.78,-86.18C1277.4,-92.52 1307.93,-101.08 1332.68,-108.03"/>
<polygon fill="black" stroke="black" points="1331.57,-111.35 1342.15,-110.68 1333.46,-104.61 1331.57,-111.35"/>
<text text-anchor="middle" x="1299.3" y="-108.98" font-family="Times,serif" font-size="14.00">epsilon</text>
</g>
<!-- q12&#45;&gt;q16 -->
<g id="edge18" class="edge">
<title>q12&#45;&gt;q16</title>
<path fill="none" stroke="black" d="M1254.78,-68.15C1277.4,-61.81 1307.93,-53.25 1332.68,-46.3"/>
<polygon fill="black" stroke="black" points="1333.46,-49.72 1342.15,-43.65 1331.57,-42.98 1333.46,-49.72"/>
<text text-anchor="middle" x="1299.3" y="-65.98" font-family="Times,serif" font-size="14.00">epsilon</text>
</g>
</g>
</svg>
